<svg xmlns="http://www.w3.org/2000/svg" xmlns:xlink="http://www.w3.org/1999/xlink" width="800" zoomAndPan="magnify" viewBox="0 0 600 374.999991" height="500" preserveAspectRatio="xMidYMid meet" version="1.0"><defs><clipPath id="f043a7445d"><path d="M 258 112.5 L 293 112.5 L 293 147 L 258 147 Z M 258 112.5 " clip-rule="nonzero"/></clipPath><clipPath id="f02ec3d65f"><path d="M 362 120 L 412.734375 120 L 412.734375 171 L 362 171 Z M 362 120 " clip-rule="nonzero"/></clipPath><clipPath id="8ac790c91f"><path d="M 225 228 L 260 228 L 260 262.5 L 225 262.5 Z M 225 228 " clip-rule="nonzero"/></clipPath><clipPath id="4f6b3f73cd"><path d="M 143 140.253906 L 277.5 140.253906 L 277.5 176 L 143 176 Z M 143 140.253906 " clip-rule="nonzero"/></clipPath><clipPath id="4b46d4d4d1"><path d="M 37.5 192 L 172 192 L 172 227.253906 L 37.5 227.253906 Z M 37.5 192 " clip-rule="nonzero"/></clipPath></defs><g clip-path="url(#f043a7445d)"><path fill="#2379be" d="M 284.199219 146.007812 L 266.476562 146.007812 C 262.132812 146.007812 258.601562 142.46875 258.601562 138.121094 L 258.601562 120.386719 C 258.601562 116.035156 262.132812 112.5 266.476562 112.5 L 284.199219 112.5 C 288.542969 112.5 292.074219 116.035156 292.074219 120.386719 L 292.074219 138.128906 C 292.070312 142.46875 288.542969 146.007812 284.199219 146.007812 Z M 266.476562 114.300781 C 263.128906 114.300781 260.40625 117.027344 260.40625 120.378906 L 260.40625 138.121094 C 260.40625 141.476562 263.128906 144.199219 266.476562 144.199219 L 284.199219 144.199219 C 287.546875 144.199219 290.269531 141.476562 290.269531 138.121094 L 290.269531 120.386719 C 290.269531 117.03125 287.546875 114.308594 284.199219 114.308594 L 266.476562 114.308594 Z M 266.476562 114.300781 " fill-opacity="1" fill-rule="nonzero"/></g><path fill="#2379be" d="M 342.578125 239.335938 L 309.835938 239.335938 C 302.238281 239.335938 296.054688 233.144531 296.054688 225.539062 L 296.054688 192.761719 C 296.054688 185.152344 302.238281 178.964844 309.835938 178.964844 L 342.578125 178.964844 C 350.175781 178.964844 356.359375 185.152344 356.359375 192.761719 L 356.359375 225.539062 C 356.359375 233.144531 350.175781 239.335938 342.578125 239.335938 Z M 309.835938 180.765625 C 303.234375 180.765625 297.855469 186.144531 297.855469 192.761719 L 297.855469 225.539062 C 297.855469 232.152344 303.226562 237.535156 309.835938 237.535156 L 342.578125 237.535156 C 349.179688 237.535156 354.558594 232.15625 354.558594 225.539062 L 354.558594 192.761719 C 354.558594 186.148438 349.1875 180.765625 342.578125 180.765625 Z M 309.835938 180.765625 " fill-opacity="1" fill-rule="nonzero"/><g clip-path="url(#f02ec3d65f)"><path fill="#2379be" d="M 401.144531 170.101562 L 374.210938 170.101562 C 367.871094 170.101562 362.710938 164.933594 362.710938 158.589844 L 362.710938 131.625 C 362.710938 125.277344 367.871094 120.113281 374.210938 120.113281 L 401.144531 120.113281 C 407.480469 120.113281 412.640625 125.277344 412.640625 131.625 L 412.640625 158.589844 C 412.640625 164.933594 407.480469 170.101562 401.144531 170.101562 Z M 374.210938 121.914062 C 368.859375 121.914062 364.511719 126.269531 364.511719 131.617188 L 364.511719 158.589844 C 364.511719 163.945312 368.859375 168.300781 374.210938 168.300781 L 401.144531 168.300781 C 406.492188 168.300781 410.84375 163.945312 410.84375 158.589844 L 410.84375 131.625 C 410.84375 126.273438 406.492188 121.917969 401.144531 121.917969 L 374.210938 121.917969 Z M 374.210938 121.914062 " fill-opacity="1" fill-rule="nonzero"/></g><path fill="#2379be" d="M 274.449219 201.214844 L 262.851562 201.214844 C 259.839844 201.214844 257.386719 198.761719 257.386719 195.746094 L 257.386719 184.136719 C 257.386719 181.121094 259.839844 178.667969 262.851562 178.667969 L 274.449219 178.667969 C 277.460938 178.667969 279.910156 181.121094 279.910156 184.136719 L 279.910156 195.746094 C 279.910156 198.761719 277.460938 201.214844 274.449219 201.214844 Z M 262.851562 180.472656 C 260.832031 180.472656 259.1875 182.121094 259.1875 184.140625 L 259.1875 195.753906 C 259.1875 197.773438 260.832031 199.417969 262.851562 199.417969 L 274.449219 199.417969 C 276.464844 199.417969 278.109375 197.773438 278.109375 195.753906 L 278.109375 184.140625 C 278.109375 182.121094 276.464844 180.472656 274.449219 180.472656 Z M 262.851562 180.472656 " fill-opacity="1" fill-rule="nonzero"/><g clip-path="url(#8ac790c91f)"><path fill="#2379be" d="M 251.316406 262.492188 L 233.59375 262.492188 C 229.253906 262.492188 225.71875 258.957031 225.71875 254.609375 L 225.71875 236.867188 C 225.71875 232.519531 229.253906 228.980469 233.59375 228.980469 L 251.316406 228.980469 C 255.660156 228.980469 259.191406 232.519531 259.191406 236.867188 L 259.191406 254.609375 C 259.1875 258.957031 255.660156 262.492188 251.316406 262.492188 Z M 233.59375 230.789062 C 230.246094 230.789062 227.523438 233.511719 227.523438 236.867188 L 227.523438 254.609375 C 227.523438 257.960938 230.246094 260.6875 233.59375 260.6875 L 251.316406 260.6875 C 254.667969 260.6875 257.386719 257.960938 257.386719 254.609375 L 257.386719 236.867188 C 257.386719 233.511719 254.667969 230.789062 251.316406 230.789062 Z M 233.59375 230.789062 " fill-opacity="1" fill-rule="nonzero"/></g><path fill="#2379be" d="M 204.109375 218.328125 L 192.511719 218.328125 C 189.5 218.328125 187.050781 215.875 187.050781 212.863281 L 187.050781 201.25 C 187.050781 198.234375 189.5 195.78125 192.511719 195.78125 L 204.109375 195.78125 C 207.121094 195.78125 209.570312 198.234375 209.570312 201.25 L 209.570312 212.863281 C 209.570312 215.875 207.121094 218.328125 204.109375 218.328125 Z M 192.511719 197.582031 C 190.496094 197.582031 188.851562 199.230469 188.851562 201.25 L 188.851562 212.863281 C 188.851562 214.882812 190.496094 216.527344 192.511719 216.527344 L 204.109375 216.527344 C 206.128906 216.527344 207.773438 214.882812 207.773438 212.863281 L 207.773438 201.25 C 207.773438 199.230469 206.128906 197.582031 204.109375 197.582031 Z M 192.511719 197.582031 " fill-opacity="1" fill-rule="nonzero"/><g clip-path="url(#4f6b3f73cd)"><path fill="#f8aeb0" d="M 249.367188 140.253906 L 277.472656 168.425781 L 272.902344 172.992188 L 249.367188 149.40625 L 223.542969 175.28125 L 197.722656 149.40625 L 171.886719 175.28125 L 143.761719 147.117188 L 148.328125 142.542969 L 171.886719 166.136719 L 197.722656 140.253906 L 223.542969 166.128906 Z M 249.367188 140.253906 " fill-opacity="1" fill-rule="nonzero"/></g><g clip-path="url(#4b46d4d4d1)"><path fill="#f37779" d="M 143.121094 192.230469 L 171.226562 220.394531 L 166.65625 224.964844 L 143.121094 201.375 L 117.296875 227.253906 L 91.476562 201.375 L 65.636719 227.253906 L 37.515625 199.089844 L 42.082031 194.511719 L 65.636719 218.105469 L 91.476562 192.230469 L 117.296875 218.105469 Z M 143.121094 192.230469 " fill-opacity="1" fill-rule="nonzero"/></g><path fill="#96d1c5" d="M 196.167969 165.867188 L 224.273438 194.027344 L 219.703125 198.601562 L 196.167969 175.015625 L 170.339844 200.890625 L 144.519531 175.011719 L 118.683594 200.890625 L 90.5625 172.726562 L 95.128906 168.15625 L 118.683594 191.746094 L 144.519531 165.867188 L 170.339844 191.738281 Z M 196.167969 165.867188 " fill-opacity="1" fill-rule="nonzero"/></svg>